<svg id="图层_1" data-name="图层 1" xmlns="http://www.w3.org/2000/svg" viewBox="0 0 814 238"><defs><style>.cls-1{fill:none;stroke:#000;stroke-miterlimit:10;}</style></defs><path d="M634.34,1319.23c0,1.21-.56,1.82-1.69,1.82H611.9c-1.13,0-1.7-.68-1.7-2q0-5.93.44-17.76t.44-17.75c0-1.13-.17-1.74-.52-1.82q-.66.36-7.86,18.11-4.22,10.42-8.43,20.8a2.47,2.47,0,0,1-1.47,1.58,22.46,22.46,0,0,1-2.34.06c-2,0-3.25-.39-3.64-1.17q-3.15-6.45-8.32-18.75-5.5-13-8.26-18.81a1.86,1.86,0,0,0-.52-.65,2.76,2.76,0,0,0-.41,1.7q0,5.74.29,17.23t.29,17.23c0,1.37-.55,2-1.64,2H548.68c-.78,0-1.26-.13-1.44-.38a2.52,2.52,0,0,1-.26-1.32q0-6.39.62-19.19t.61-19.19q0-6.79-.58-25.49-.06-4.86-.53-14.47l-.06-1q-.06-1.17,2.46-1.17,3.22,0,9.67-.2c4.29-.14,7.52-.21,9.67-.21.43,0,1,.82,1.81,2.46l17.11,37.56q1.82,3.81,3,3.81.65,0,2.75-4.4,5.93-12.3,17.52-37.09c.67-1.52,1.39-2.28,2.17-2.28q1.69,0,5.13.18c2.28.11,4,.17,5.18.17,1,0,2.47-.1,4.49-.29s3.5-.3,4.48-.3c1.17,0,1.76.47,1.76,1.41q0,6.91-.5,20.66t-.5,20.65q0,6.39.53,19.16T634.34,1319.23Z" transform="translate(-455 -1127)"/><path d="M726.63,1280q0,18.29-11.66,30.65-11.9,12.54-30.12,12.54t-30.06-12.66q-11.71-12.36-11.72-30.53t11.72-30.64q12-12.72,30.06-12.72t30,12.72Q726.63,1261.93,726.63,1280Zm-22.21-.11a22.09,22.09,0,0,0-5.33-15,18,18,0,0,0-14.24-6.44,17.77,17.77,0,0,0-14,6.68,22,22,0,0,0-5.57,14.82q0,9,5.22,14.94a18.19,18.19,0,0,0,14.35,6.27,18,18,0,0,0,14.06-6.62A21.68,21.68,0,0,0,704.42,1279.92Z" transform="translate(-455 -1127)"/><path d="M795.36,1302.83a75.29,75.29,0,0,1-1,9.25q-1.05,7.34-1.87,8.73a2.19,2.19,0,0,1-1.93,1.12,13.82,13.82,0,0,1-1.76-.18q-4.27-.59-25-.58c-3,0-7.48,0-13.42-.06s-10.39-.06-13.36-.06c-1.29,0-1.93-.57-1.93-1.7q0-6.57.73-19.72t.73-19.71q0-6.69-.7-24.91-.18-4.68-.65-14l-.06-.82c-.07-.9.41-1.35,1.47-1.35q4.33,0,13,.24t13,.23q4.28,0,12.89-.23t12.89-.24c2,0,3.21.76,3.52,2.29.19.9.5,3.62.91,8.17s.61,7.32.61,8.29-.39,1.23-1.17,1.23q-.35,0-1.23-.06-15.58-1.29-28-1.29-3.11,0-3.81,1.47a18.74,18.74,0,0,0-.29,4.51q0,4,1.17,5.27c.67.75,1.94,1.12,3.81,1.12.39,0,1.15,0,2.29-.09s2.07-.09,2.81-.09q7.38,0,14.94-.41l3.22-.29a28.07,28.07,0,0,1,3.17-.24c.94,0,1.4.45,1.4,1.35q0-1.23-1.05,9c-.31,3.12-.47,6.25-.47,9.37,0,.78-.57,1.17-1.7,1.17l-5.27-.58q-3.35-.36-15.24-.35H761.9c-1.6,0-2.54.39-2.81,1.17q-.06.29-.06,3.63,0,4.46.59,5.74,1,2.24,7.5,2.64h8.55q3.11,0,9.23-.56t9.17-.55C794.93,1300.72,795.36,1301.42,795.36,1302.83Z" transform="translate(-455 -1127)"/><path d="M844.58,1275.93a18.9,18.9,0,0,1-.82,4.75q-.71,2.34-1.35,4.74-.24,2.94-1.11,8.5c-.12.55-.59.82-1.41.82q-2.22,0-6.71-.06c-3,0-5.24-.06-6.77-.06a161.26,161.26,0,0,0-16.52,1.12c-.39,0-1.44.19-3.16.46a19.85,19.85,0,0,1-3.23.36c-1,0-1.52-1-1.52-2.88q0-1.52,2-8.49a80.08,80.08,0,0,1,2.82-8.56,1.51,1.51,0,0,1,1.52-.93c1.52,0,3.81.08,6.85.23s5.34.24,6.86.24a143.67,143.67,0,0,0,15.88-1.41c3.87-.51,5.68-.76,5.45-.76C844.17,1274,844.58,1274.64,844.58,1275.93Z" transform="translate(-455 -1127)"/><path d="M930.59,1279.5a43.93,43.93,0,0,1-11.07,29.89q-9.78,11.31-27.48,11.89-3.4.12-18.69.12-2.88,0-8.64-.18t-8.65-.17c-1.13,0-1.7-.45-1.7-1.35q0-6.45.5-19.37t.5-19.36q0-6.73-.5-20.19t-.5-20.12c0-.82.57-1.31,1.7-1.47q4.17-.46,13.65-.47,18.06,0,23.38.53,13.89,1.41,21.74,7a35.65,35.65,0,0,1,11.66,14.77A43.8,43.8,0,0,1,930.59,1279.5Zm-22.44,0q0-9.9-5.92-16.17-6-6.49-15.82-6.5-9,0-9,2.4c0,2.31,0,5.77-.12,10.4s-.11,8.1-.11,10.4,0,5.68.11,10.23.12,8,.12,10.28q0,2.52,9.38,2.52,10.13,0,15.93-6.74Q908.16,1289.93,908.15,1279.5Z" transform="translate(-455 -1127)"/><path d="M1009.52,1320.46c0,.28-.39.47-1.17.59a102.89,102.89,0,0,1-11.19.35,100.85,100.85,0,0,1-10.43-.35,6,6,0,0,1-1.47-.3,2.53,2.53,0,0,1-.82-1.17l-2.58-6.79q-2.28-5.86-7.15-17.29-1.05-2.28-4.86-2.52,1.75.12-6,.12c-.59,0-.88,1-.88,3q0,4,.73,11.89t.73,11.9c0,.66-.17,1-.52,1.17l-1.65.12q-3.45.22-10.78.23a78.51,78.51,0,0,1-10.07-.35c-1.14-.24-1.7-.84-1.7-1.82q0-6.45.61-19.45t.62-19.51q0-24.8-1.12-38.68l-.06-.82c0-.66.58-1.11,1.85-1.34s7.24-.47,17.9-.71q10.85-.23,17.29-.23,13.35,0,21.79,6,9.56,6.81,9.55,19.63,0,8.56-2.46,13.66t-9.08,9.9c-.9.62-1.35,1.21-1.35,1.76q0-.06,7.15,14.7T1009.52,1320.46Zm-24.61-52.56q0-7.14-4.69-9.9-3.63-2.12-11.36-2.11-5.58,0-5.92,1.7a100.51,100.51,0,0,0-.35,11.49c0,.89,0,2.22,0,4s.06,3.07.06,3.93c0,.19.63.39,1.88.58a51.52,51.52,0,0,0,7.5.53Q984.91,1278.1,984.91,1267.9Z" transform="translate(-455 -1127)"/><path d="M1039.93,1277.75q0,6.91.35,20.8t.35,20.8c0,.78-.17,1.27-.52,1.46a12.19,12.19,0,0,1-1.53.24,88,88,0,0,1-10.19.47,74.78,74.78,0,0,1-10.9-.47c-1.14-.24-1.7-.84-1.7-1.82q0,.94.53-10.31,1-23.73,1-31.17,0-6.27-.41-18.81t-.41-18.81q0-1.29,1.35-1.29c1.21,0,3,.06,5.48.18s4.26.17,5.48.17,3-.06,5.36-.17,4.15-.18,5.36-.18,1.7.43,1.7,1.29q0,6.27-.68,18.81T1039.93,1277.75Z" transform="translate(-455 -1127)"/><path d="M1085,1321.28a88.12,88.12,0,0,1-9-.23,2.91,2.91,0,0,1-1.87-1.7q-6.67-13.18-13.42-26.43-10.61-21.27-10.6-24.08,0-4.62.32-13.92t.32-13.91c0-1.45.39-2.17,1.17-2.17,2.35,0,5.9.1,10.67.29s8.34.3,10.72.3c1,0,1.46.41,1.46,1.23q0,4.74-.67,14.26t-.67,14.27q0,3.64,11.89,26,3.23-5.81,7.33-14.24,5.51-11.37,5.5-13.94,0-4.28-.11-12.87t-.12-12.86c0-1,.17-1.64.53-1.75h1.87q3.23,0,9.76-.33t9.75-.32c1.17,0,1.76.47,1.76,1.41q0,4.51-.15,13.62t-.14,13.68q0,3.63-11.55,26.72-4.56,8.32-13.18,25.08a5.06,5.06,0,0,1-.79,1.43,4.64,4.64,0,0,1-1.49.27C1092.25,1321.2,1089.17,1321.28,1085,1321.28Z" transform="translate(-455 -1127)"/><path d="M1190.22,1302.83a76.72,76.72,0,0,1-1,9.25c-.71,4.89-1.33,7.8-1.88,8.73a2.19,2.19,0,0,1-1.93,1.12,14,14,0,0,1-1.76-.18q-4.28-.59-25-.58c-3,0-7.48,0-13.42-.06s-10.39-.06-13.36-.06c-1.29,0-1.93-.57-1.93-1.7q0-6.57.73-19.72t.73-19.71q0-6.69-.7-24.91-.18-4.68-.64-14l-.06-.82c-.08-.9.41-1.35,1.46-1.35q4.34,0,13,.24t13,.23q4.28,0,12.89-.23t12.89-.24c2,0,3.2.76,3.51,2.29q.3,1.35.91,8.17c.41,4.55.62,7.32.62,8.29s-.39,1.23-1.18,1.23q-.35,0-1.23-.06-15.59-1.29-28-1.29c-2.08,0-3.34.49-3.81,1.47a18,18,0,0,0-.3,4.51q0,4,1.18,5.27c.66.75,1.93,1.12,3.81,1.12.38,0,1.15,0,2.28-.09s2.07-.09,2.81-.09c4.92,0,9.91-.14,14.94-.41l3.23-.29a27.76,27.76,0,0,1,3.16-.24q1.41,0,1.41,1.35,0-1.23-1.06,9c-.31,3.12-.47,6.25-.47,9.37,0,.78-.56,1.17-1.7,1.17l-5.27-.58q-3.35-.36-15.23-.35h-6.21c-1.61,0-2.54.39-2.82,1.17q-.06.29-.06,3.63,0,4.46.59,5.74,1,2.24,7.5,2.64h8.56q3.11,0,9.22-.56t9.17-.55C1189.79,1300.72,1190.22,1301.42,1190.22,1302.83Z" transform="translate(-455 -1127)"/><path d="M765,1168v40h-11.9v-40Zm22.82,0-10.55,18.14L787.78,1208H774.42l-9-22.09,10.25-17.9Z" transform="translate(-455 -1127)"/><path d="M803.25,1168v27a14.75,14.75,0,0,1-3.46,10.06,11.08,11.08,0,0,1-8.75,4,12,12,0,0,1-3.64-.67v-11.52a4,4,0,0,0,1.61.38q2.36,0,2.35-3.78V1168Z" transform="translate(-455 -1127)"/><path d="M846.41,1183.55v8.91h-7.77a4,4,0,0,0-2.24.47,1.8,1.8,0,0,0-.66,1.58,1.75,1.75,0,0,0,.68,1.65,6.11,6.11,0,0,0,2.75.4h8V1208h-9.35q-6.59,0-10.08-3.15c-2.32-2.09-3.48-5.13-3.48-9.09v-15.68q0-5.73,3.29-8.9t9.28-3.17h10.34v11.49h-7.59c-2.05,0-3.08.66-3.08,2a1.78,1.78,0,0,0,.74,1.63,5.3,5.3,0,0,0,2.6.45Z" transform="translate(-455 -1127)"/><path d="M871.16,1168h11v24.35q0,6.71-3.52,10.93a14.23,14.23,0,0,1-5.14,3.86,15.64,15.64,0,0,1-17.42-3,14.56,14.56,0,0,1-4.48-10.79A14.71,14.71,0,0,1,856,1182.7a14.29,14.29,0,0,1,10.54-4.51c.65,0,1.62.06,2.93.18v12.07a4.35,4.35,0,0,0-2.69-1.06,3.93,3.93,0,0,0-2.92,1.25,4.14,4.14,0,0,0-1.21,3,3.9,3.9,0,0,0,1.26,2.91,4.17,4.17,0,0,0,3,1.22c2.82,0,4.22-1.94,4.22-5.83Z" transform="translate(-455 -1127)"/><path d="M898.85,1178.78V1208h-11v-29.2Zm-5.45-13a5.34,5.34,0,0,1,3.85,1.57,5.17,5.17,0,0,1,.09,7.45,6,6,0,0,1-7.88,0,5.17,5.17,0,0,1,.09-7.45A5.32,5.32,0,0,1,893.4,1165.74Z" transform="translate(-455 -1127)"/><path d="M915.05,1168v11.2H920v11.57h-4.92c0,2.32.37,3.92,1.1,4.8s2.07,1.32,4,1.32v11.51l-1.26,0a14.93,14.93,0,0,1-7-1.72,14.3,14.3,0,0,1-5.29-4.69q-2.52-3.78-2.52-10v-24Z" transform="translate(-455 -1127)"/><path d="M939.22,1178.16a14.48,14.48,0,0,1,10.65,4.47,15.15,15.15,0,0,1-.06,21.49,15.45,15.45,0,0,1-21.72,0,15.11,15.11,0,0,1,0-21.56A15.33,15.33,0,0,1,939.22,1178.16Zm-.29,10.81a4,4,0,0,0-3,1.28,4.53,4.53,0,0,0,0,6.22,4.11,4.11,0,0,0,6,0,4.53,4.53,0,0,0,0-6.22A4,4,0,0,0,938.93,1189Z" transform="translate(-455 -1127)"/><path d="M984.92,1208H974v-16.49c0-1.68-.69-2.52-2.08-2.52s-2,.84-2,2.52V1208h-11V1191.7a13.33,13.33,0,0,1,3.78-9.63,13.15,13.15,0,0,1,19.3.63c2,2.36,3,5.66,3,9.87Z" transform="translate(-455 -1127)"/><rect class="cls-1" x="0.5" y="0.5" width="813" height="237" rx="118.5"/></svg>